<svg width="234" height="85" viewBox="0 0 234 85" fill="none" xmlns="http://www.w3.org/2000/svg">
<path d="M43 6H28V12H43V6Z" fill="white"/>
<path d="M205 6H43V12H205V6Z" fill="white"/>
<path d="M32 14H29V44H32V14Z" fill="white"/>
<path d="M43 12H35V44H43V12Z" fill="white"/>
<path d="M205 46H27V49H205V46Z" fill="white"/>
<path d="M28 52.777C26.8337 52.8314 15.7969 52.5146 11.5368 48.362C8.52899 45.4269 8.707 41.883 8.84205 39.1756C9.00778 35.8643 10.0083 34.0281 14.5446 25.0694C18.7617 16.7343 19.5843 14.997 19.7868 12.0372C19.9648 9.45849 20.2042 4.76632 16.2757 1.97477C15.76 1.60851 12.7645 -0.5198 9.05075 0.118692C6.41124 0.569101 4.95644 2.15296 4.61269 2.54892C3.13947 4.25157 2.83869 6.51351 3.92519 8.43889C4.77229 9.9386 6.82251 11.859 9.08758 11.7798C11.2729 11.7056 12.6233 9.80001 14.3543 10.3148C14.3543 10.3148 14.9498 10.4929 15.3856 10.983C17.1719 12.9925 11.3895 18.3974 5.01168 27.5392C2.55018 31.0682 1.48824 33.0184 0.782325 35.409C0.579757 36.0871 -0.242789 39.0222 0.07027 42.9917C0.309668 46.001 0.659556 50.3962 4.44081 54.6479C4.9503 55.2171 7.23379 57.7166 11.414 59.7558C12.6724 60.3696 18.2215 62.9483 25.6429 62.6414C26.6373 62.6018 27.4537 62.5177 27.9877 62.4484" fill="white"/>
<path d="M43 51H27V66H43V51Z" fill="white"/>
<path d="M202 14H205V44H202V14Z" fill="white"/>
<path d="M206 52.777C207.166 52.8314 218.203 52.5146 222.463 48.362C225.471 45.4269 225.293 41.883 225.158 39.1756C224.992 35.8643 223.992 34.0281 219.455 25.0694C215.238 16.7343 214.416 14.997 214.213 12.0372C214.035 9.45849 213.796 4.76632 217.724 1.97477C218.24 1.60851 221.236 -0.5198 224.949 0.118692C227.589 0.569101 229.044 2.15296 229.387 2.54892C230.861 4.25157 231.161 6.51351 230.075 8.43889C229.228 9.9386 227.177 11.859 224.912 11.7798C222.727 11.7056 221.377 9.80001 219.646 10.3148C219.646 10.3148 219.05 10.4929 218.614 10.983C216.828 12.9925 222.611 18.3974 228.988 27.5392C231.45 31.0682 232.512 33.0184 233.218 35.409C233.42 36.0871 234.243 39.0222 233.93 42.9917C233.69 46.001 233.34 50.3962 229.559 54.6479C229.05 55.2171 226.766 57.7166 222.586 59.7558C221.328 60.3696 215.778 62.9483 208.357 62.6414C207.363 62.6018 206.546 62.5177 206.012 62.4484" fill="white"/>
<path d="M191 51H207V66H191V51Z" fill="white"/>
<path d="M207 68H17V74H207V68Z" fill="white"/>
<path d="M48.974 44V16.223H58.844C60.5987 16.223 61.9303 16.646 62.839 17.492C63.779 18.3067 64.249 19.4503 64.249 20.923V24.072C64.249 24.8867 64.1237 25.6387 63.873 26.328C63.6537 26.986 63.309 27.55 62.839 28.02C62.4943 28.3647 62.0557 28.631 61.523 28.819C60.9903 29.007 60.4733 29.1167 59.972 29.148V29.195C60.5047 29.195 61.0217 29.2577 61.523 29.383C62.0243 29.5083 62.4943 29.759 62.933 30.135C63.4657 30.5423 63.8887 31.1063 64.202 31.827C64.5153 32.5163 64.672 33.378 64.672 34.412V38.219C64.672 39.723 64.4057 40.898 63.873 41.744C63.3717 42.59 62.6353 43.1853 61.664 43.53C60.724 43.8433 59.596 44 58.28 44H48.974ZM54.473 41.133H57.011C57.481 41.133 57.857 41.0547 58.139 40.898C58.4523 40.71 58.6873 40.381 58.844 39.911C59.032 39.441 59.126 38.7517 59.126 37.843V34.553C59.126 33.2997 58.9067 32.485 58.468 32.109C58.0607 31.7017 57.5123 31.498 56.823 31.498H54.473V41.133ZM54.473 28.067H56.682C57.4027 28.067 57.9667 27.8163 58.374 27.315C58.8127 26.8137 59.032 25.9363 59.032 24.683V21.91C59.032 20.9387 58.844 20.2493 58.468 19.842C58.1233 19.4033 57.669 19.184 57.105 19.184H54.473V28.067ZM74.5068 44.564C72.9714 44.564 71.6241 44.376 70.4647 44C69.3054 43.6553 68.3967 42.919 67.7387 41.791C67.1121 40.6317 66.7987 38.924 66.7987 36.668V22.098C66.7987 20.4373 67.1121 19.1527 67.7387 18.244C68.3967 17.3353 69.3054 16.7087 70.4647 16.364C71.6554 15.988 73.0184 15.8 74.5537 15.8C76.0577 15.8 77.3894 15.988 78.5488 16.364C79.7394 16.74 80.6638 17.3823 81.3218 18.291C82.0111 19.1997 82.3558 20.4687 82.3558 22.098V36.621C82.3558 38.9083 82.0111 40.6317 81.3218 41.791C80.6638 42.919 79.7394 43.6553 78.5488 44C77.3894 44.376 76.0421 44.564 74.5068 44.564ZM74.5068 41.368C74.9768 41.368 75.3841 41.2897 75.7287 41.133C76.1048 40.9763 76.3868 40.71 76.5748 40.334C76.7941 39.9267 76.9037 39.3783 76.9037 38.689V21.863C76.9037 21.1737 76.7941 20.641 76.5748 20.265C76.3868 19.8577 76.1048 19.5757 75.7287 19.419C75.3841 19.2623 74.9768 19.184 74.5068 19.184C74.0368 19.184 73.6294 19.2623 73.2847 19.419C72.9401 19.5757 72.6581 19.8577 72.4387 20.265C72.2507 20.641 72.1567 21.1737 72.1567 21.863V38.689C72.1567 39.3783 72.2507 39.9267 72.4387 40.334C72.6581 40.71 72.9401 40.9763 73.2847 41.133C73.6294 41.2897 74.0368 41.368 74.5068 41.368ZM85.052 44V16.223H94.922C96.7707 16.223 98.165 16.646 99.105 17.492C100.076 18.3067 100.562 19.4503 100.562 20.923V25.717C100.562 26.9703 100.405 28.1453 100.092 29.242C99.7787 30.3073 99.2147 31.169 98.4 31.827C97.5853 32.485 96.4103 32.814 94.875 32.814H90.739V44H85.052ZM90.739 29.806H92.854C93.606 29.806 94.17 29.4457 94.546 28.725C94.922 28.0043 95.11 26.8137 95.11 25.153V23.273C95.11 21.8003 94.9533 20.7507 94.64 20.124C94.3267 19.4973 93.8723 19.184 93.277 19.184H90.739V29.806ZM111.587 44V36.386C111.274 36.668 110.726 36.9657 109.942 37.279C109.159 37.561 108.329 37.702 107.451 37.702C105.947 37.702 104.804 37.4513 104.02 36.95C103.237 36.4487 102.704 35.7437 102.422 34.835C102.172 33.895 102.046 32.767 102.046 31.451V16.223H107.404V31.451C107.404 32.297 107.545 32.9393 107.827 33.378C108.141 33.8167 108.689 34.036 109.472 34.036C110.068 34.036 110.538 33.9577 110.882 33.801C111.227 33.6443 111.462 33.5033 111.587 33.378V16.223H117.039V44H111.587ZM120.028 44V16.223H132.812V20.077H125.715V27.503H131.731V31.78H125.715V40.24H132.812V44H120.028ZM142.306 44.564C140.77 44.564 139.407 44.376 138.217 44C137.057 43.6553 136.133 42.919 135.444 41.791C134.786 40.6317 134.457 38.924 134.457 36.668V22.098C134.457 20.4373 134.786 19.1527 135.444 18.244C136.133 17.3353 137.073 16.7087 138.264 16.364C139.454 15.988 140.817 15.8 142.353 15.8C143.919 15.8 145.267 15.988 146.395 16.364C147.554 16.74 148.447 17.3823 149.074 18.291C149.7 19.1997 150.014 20.4687 150.014 22.098V27.832H144.562V21.863C144.562 21.111 144.468 20.547 144.28 20.171C144.092 19.7637 143.825 19.4973 143.481 19.372C143.167 19.2467 142.791 19.184 142.353 19.184C141.914 19.184 141.522 19.2467 141.178 19.372C140.833 19.4973 140.567 19.7637 140.379 20.171C140.191 20.547 140.097 21.111 140.097 21.863V38.689C140.097 39.4097 140.191 39.9737 140.379 40.381C140.567 40.757 140.833 41.0233 141.178 41.18C141.522 41.3053 141.914 41.368 142.353 41.368C142.791 41.368 143.167 41.3053 143.481 41.18C143.825 41.0233 144.092 40.757 144.28 40.381C144.468 39.9737 144.562 39.4097 144.562 38.689V33.19H150.014V36.621C150.014 38.9083 149.7 40.6317 149.074 41.791C148.447 42.919 147.554 43.6553 146.395 44C145.267 44.376 143.904 44.564 142.306 44.564ZM155.299 44V20.077H150.975V16.223H165.075V20.077H160.751V44H155.299ZM166.549 44V16.223H176.419C178.174 16.223 179.506 16.646 180.414 17.492C181.354 18.3067 181.824 19.4503 181.824 20.923V24.072C181.824 24.8867 181.699 25.6387 181.448 26.328C181.229 26.986 180.884 27.55 180.414 28.02C180.07 28.3647 179.631 28.631 179.098 28.819C178.566 29.007 178.049 29.1167 177.547 29.148V29.195C178.08 29.195 178.597 29.2577 179.098 29.383C179.6 29.5083 180.07 29.759 180.508 30.135C181.041 30.5423 181.464 31.1063 181.777 31.827C182.091 32.5163 182.247 33.378 182.247 34.412V38.219C182.247 39.723 181.981 40.898 181.448 41.744C180.947 42.59 180.211 43.1853 179.239 43.53C178.299 43.8433 177.171 44 175.855 44H166.549ZM172.048 41.133H174.586C175.056 41.133 175.432 41.0547 175.714 40.898C176.028 40.71 176.263 40.381 176.419 39.911C176.607 39.441 176.701 38.7517 176.701 37.843V34.553C176.701 33.2997 176.482 32.485 176.043 32.109C175.636 31.7017 175.088 31.498 174.398 31.498H172.048V41.133ZM172.048 28.067H174.257C174.978 28.067 175.542 27.8163 175.949 27.315C176.388 26.8137 176.607 25.9363 176.607 24.683V21.91C176.607 20.9387 176.419 20.2493 176.043 19.842C175.699 19.4033 175.244 19.184 174.68 19.184H172.048V28.067ZM192.082 44.564C190.547 44.564 189.199 44.376 188.04 44C186.881 43.6553 185.972 42.919 185.314 41.791C184.687 40.6317 184.374 38.924 184.374 36.668V22.098C184.374 20.4373 184.687 19.1527 185.314 18.244C185.972 17.3353 186.881 16.7087 188.04 16.364C189.231 15.988 190.594 15.8 192.129 15.8C193.633 15.8 194.965 15.988 196.124 16.364C197.315 16.74 198.239 17.3823 198.897 18.291C199.586 19.1997 199.931 20.4687 199.931 22.098V36.621C199.931 38.9083 199.586 40.6317 198.897 41.791C198.239 42.919 197.315 43.6553 196.124 44C194.965 44.376 193.617 44.564 192.082 44.564ZM192.082 41.368C192.552 41.368 192.959 41.2897 193.304 41.133C193.68 40.9763 193.962 40.71 194.15 40.334C194.369 39.9267 194.479 39.3783 194.479 38.689V21.863C194.479 21.1737 194.369 20.641 194.15 20.265C193.962 19.8577 193.68 19.5757 193.304 19.419C192.959 19.2623 192.552 19.184 192.082 19.184C191.612 19.184 191.205 19.2623 190.86 19.419C190.515 19.5757 190.233 19.8577 190.014 20.265C189.826 20.641 189.732 21.1737 189.732 21.863V38.689C189.732 39.3783 189.826 39.9267 190.014 40.334C190.233 40.71 190.515 40.9763 190.86 41.133C191.205 41.2897 191.612 41.368 192.082 41.368Z" fill="white"/>
<path d="M63.229 60.8369C63.6397 60.8564 64.0058 60.6989 64.3301 60.4828C64.4773 60.3851 64.6165 60.2777 64.7435 60.1593C64.8664 60.0445 64.9934 59.8858 65.1637 59.8272C65.3325 59.7698 65.5433 59.7869 65.7203 59.7747C65.9473 59.7576 66.1742 59.7344 66.3985 59.7026C66.7201 59.6587 67.1348 59.5781 67.3051 59.2961C67.4672 59.0263 67.2781 58.7149 67.0092 58.5758C66.6985 58.4146 66.3053 58.3963 65.9554 58.4134C65.1853 58.4512 64.4462 58.7381 63.8396 59.1593C63.5248 59.3779 63.1898 59.6501 62.9966 59.9688C62.8304 60.2423 62.8115 60.6403 63.1533 60.8137C63.2492 60.8625 63.3776 60.8369 63.4735 60.7978C63.5046 60.7856 63.6964 60.6818 63.6032 60.6354C63.3519 60.5084 63.3168 60.2325 63.4181 60.0079C63.5275 59.7661 63.7653 59.561 63.9761 59.3889C64.4071 59.0373 64.9313 58.7601 65.5082 58.671C65.8014 58.6258 66.1297 58.6197 66.4161 58.704C66.6795 58.7809 66.9524 59.0116 66.8606 59.2875C66.7822 59.5232 66.3715 59.5012 66.1567 59.5232C65.8351 59.5561 65.5001 59.5464 65.1853 59.6184C64.8367 59.6978 64.603 59.8882 64.3611 60.1153C64.2463 60.224 64.1206 60.3216 63.9882 60.4132C63.8612 60.5011 63.6964 60.6183 63.5275 60.611C63.4127 60.6061 63.2722 60.6318 63.1844 60.705C63.1182 60.7587 63.1222 60.832 63.229 60.8369Z" fill="white"/>
<path d="M66.7053 62.7348C66.7174 62.747 66.7309 62.7605 66.7431 62.7727C66.7715 62.8203 66.785 62.8252 66.785 62.7873C66.7944 62.7812 66.8039 62.7519 66.8106 62.7422C66.8431 62.6994 66.8958 62.6738 66.9471 62.6543C67.066 62.6079 67.2011 62.6005 67.3281 62.5859C67.6388 62.5493 67.9509 62.5248 68.2617 62.4907C68.8116 62.4308 69.3682 62.3417 69.8748 62.1293C70.3274 61.94 70.7044 61.6568 70.9746 61.2771C71.2367 60.9084 71.3907 60.4835 71.6731 60.127C71.8055 59.9597 71.9636 59.7937 72.1811 59.7192C72.2432 59.6984 72.3635 59.663 72.4202 59.7107C72.4878 59.7656 72.4797 59.9463 72.4851 60.0183C72.5134 60.5018 72.4729 60.9902 72.2648 61.4407C71.9041 62.2196 71.1475 62.8215 70.2761 63.1072C69.1263 63.4845 67.8118 63.2903 66.7607 62.7617C66.6688 62.7153 66.5337 62.6909 66.4783 62.7959C66.4269 62.8923 66.5229 63.0278 66.6147 63.0742C67.7267 63.6334 69.0534 63.8703 70.295 63.5528C71.3367 63.2867 72.2621 62.5944 72.6837 61.6836C72.9282 61.1538 72.9714 60.5653 72.916 59.9976C72.889 59.729 72.7566 59.464 72.4715 59.3468C72.2257 59.2467 71.946 59.3004 71.7258 59.4311C71.2515 59.7119 71.0286 60.2356 70.7814 60.6727C70.5071 61.1586 70.145 61.5286 69.5898 61.7593C68.9034 62.0462 68.1387 62.0878 67.397 62.1634C67.0849 62.1952 66.6404 62.1928 66.4296 62.4418C66.2202 62.6872 66.3986 62.9802 66.6701 63.0999C66.7715 63.1438 66.8931 63.0974 66.9079 62.9949C66.9255 62.8777 66.8079 62.7812 66.7053 62.7348Z" fill="white"/>
<path d="M60.1049 57.4052C59.6334 56.1635 62.4341 57.0047 65.4551 55.4273C68.6071 53.7816 68.7314 51.9587 70.3188 51.9551C72.7426 51.9502 75.5866 56.1928 75.1826 60.0863C75.1178 60.7065 74.653 64.3888 71.5834 65.6243C69.9027 66.3007 67.1196 67.1627 63.5095 62.5916C61.0263 59.4478 61.2236 60.35 60.1049 57.4052Z" stroke="white" stroke-miterlimit="10"/>
<path d="M71.7916 56.4984C71.5052 56.9526 70.7945 56.9098 70.3203 57.0698C70.0068 57.176 69.8015 57.3738 69.6056 57.6106C69.4083 57.8511 69.203 58.1002 68.9652 58.309C68.8571 58.4042 68.8287 58.4384 68.7004 58.3517C68.5774 58.2687 68.5085 58.1344 68.4937 57.9989C68.4639 57.7156 68.649 57.4263 68.822 57.2016C69.1449 56.7853 69.6096 56.4764 70.1271 56.2835C70.4162 56.1748 70.7296 56.0979 71.0404 56.0698C71.3579 56.0418 71.797 56.1687 71.7727 56.5265C71.7619 56.6815 72.2482 56.5802 72.2563 56.4483C72.278 56.1236 71.9875 55.9111 71.6592 55.8537C71.2741 55.7866 70.8539 55.8745 70.4824 55.9661C69.7934 56.1358 69.1341 56.4544 68.6396 56.9257C68.3964 57.1564 68.1816 57.436 68.0667 57.74C67.9505 58.0477 67.9951 58.4396 68.3599 58.591C68.6963 58.7314 69.1057 58.5629 69.3529 58.3493C69.6502 58.0904 69.8893 57.7828 70.1406 57.4897C70.2095 57.4092 70.2838 57.3213 70.3824 57.2675C70.4716 57.2199 70.577 57.2053 70.677 57.1882C70.8877 57.1516 71.0944 57.1088 71.2971 57.0466C71.6511 56.9379 72.0483 56.7853 72.2428 56.4788C72.3442 56.3177 71.8632 56.3861 71.7916 56.4984Z" fill="white"/>
<path d="M84.6809 58.8652C84.9781 58.8872 85.2146 59.0923 85.4105 59.2779C85.6145 59.472 85.759 59.7162 85.9739 59.8993C86.2049 60.0971 86.5143 60.1386 86.8142 60.1948C87.1304 60.2546 87.4789 60.3132 87.7735 60.4378C88.0437 60.5525 88.1666 60.8346 87.941 61.0519C87.7559 61.2301 87.3641 61.1605 87.129 61.1202C86.5426 61.0201 86.0076 60.7308 85.5766 60.3645C85.3308 60.1557 85.1038 59.9164 84.9295 59.6539C84.8363 59.5148 84.7525 59.356 84.7458 59.19C84.7417 59.0704 84.7876 58.875 84.9254 58.8249C84.9849 58.8042 85.1213 58.7322 85.0551 58.6626C84.9916 58.5942 84.8025 58.654 84.7349 58.6784C84.4147 58.7932 84.2215 59.063 84.2661 59.3756C84.3121 59.704 84.5904 60.0117 84.8214 60.2558C85.2821 60.743 85.8982 61.1361 86.5886 61.3009C86.9399 61.384 87.3195 61.423 87.6789 61.3644C88.0221 61.3095 88.4139 61.1434 88.5233 60.8187C88.6287 60.5061 88.3693 60.2974 88.072 60.1972C87.6856 60.0666 87.2749 60.0117 86.875 59.9238C86.6642 59.8774 86.4967 59.8017 86.3522 59.6539C86.2116 59.5111 86.1049 59.3451 85.9644 59.2022C85.7023 58.9361 85.3916 58.6699 84.9795 58.6394C84.866 58.6308 84.7214 58.6613 84.6363 58.7334C84.5674 58.7895 84.5755 58.8579 84.6809 58.8652Z" fill="white"/>
<path d="M77.9909 61.9456C77.7531 62.0824 77.7653 62.3339 77.9274 62.5243C78.1247 62.7563 78.4435 62.7905 78.7435 62.7954C79.4474 62.8088 80.1607 62.7563 80.8579 62.876C81.4429 62.9761 81.9671 63.2093 82.3278 63.6463C82.6696 64.0602 82.9169 64.5437 83.3641 64.8795C83.7356 65.159 84.5057 65.3751 84.6665 64.7793C84.7381 64.512 84.6786 64.1958 84.6354 63.9272C84.5895 63.6451 84.5098 63.3643 84.3828 63.103C83.9356 62.1776 82.975 61.4841 81.9063 61.2192C80.5363 60.8786 79.0853 61.2387 77.9517 61.9713C77.7613 62.0934 78.1166 62.4181 78.3165 62.2887C79.1866 61.7259 80.2891 61.3974 81.3632 61.5024C82.2805 61.5916 83.1628 62.0152 83.7005 62.7014C84.0018 63.0847 84.1531 63.5194 84.2152 63.9821C84.2422 64.1787 84.3247 64.5046 84.1855 64.6805C84.0585 64.8392 83.8059 64.7635 83.6599 64.6719C83.2776 64.4338 83.056 64.0114 82.802 63.6732C82.5075 63.2801 82.1508 62.959 81.6766 62.7465C81.1267 62.5011 80.5079 62.4242 79.9027 62.4084C79.5609 62.3998 79.219 62.4059 78.8772 62.4059C78.7164 62.4059 78.553 62.4108 78.3935 62.3913C78.3409 62.3852 78.1814 62.3717 78.2774 62.3156C78.4989 62.1861 78.1855 61.8333 77.9909 61.9456Z" fill="white"/>
<path d="M91.4015 57.8349C91.873 56.5932 89.0723 57.4344 86.0513 55.857C82.8993 54.2112 82.775 52.3884 81.1876 52.3848C78.7638 52.3799 75.9198 56.6225 76.3238 60.516C76.3886 61.1362 76.8534 64.8184 79.923 66.054C81.6037 66.7304 84.3868 67.5923 87.9969 63.0213C90.4801 59.8787 90.2828 60.7797 91.4015 57.8349Z" stroke="white" stroke-miterlimit="10"/>
<path d="M83.7215 58.0802C83.5296 57.8384 83.1959 57.7383 82.8879 57.6748C82.7136 57.6394 82.5406 57.6114 82.3623 57.5979C82.1569 57.5833 81.9435 57.5772 81.7651 57.4734C81.1734 57.1303 80.7221 56.1304 79.8696 56.3819C79.5291 56.482 79.2968 56.7506 79.3292 57.079C79.3603 57.4075 79.6264 57.7176 79.8696 57.9483C80.3627 58.4147 81.0369 58.6931 81.7273 58.8225C82.1367 58.8994 82.5933 58.9458 83.0027 58.8506C83.3796 58.7627 83.8106 58.5051 83.7377 58.1034C83.7147 57.9776 83.2256 58.0887 83.2526 58.2365C83.3715 58.8872 82.2177 58.6455 81.8462 58.5551C81.3058 58.4245 80.7937 58.1888 80.3898 57.8336C80.1722 57.6419 79.9669 57.4123 79.8642 57.1511C79.8129 57.0192 79.7899 56.8764 79.8385 56.7409C79.8588 56.6859 79.8912 56.6249 79.9385 56.5834C79.9655 56.5602 79.979 56.5699 79.9453 56.5724C79.9872 56.5687 80.0466 56.6029 80.0817 56.62C80.3614 56.7555 80.6019 57.0131 80.8194 57.2182C81.0302 57.4172 81.222 57.6492 81.5192 57.7457C81.83 57.8458 82.1772 57.8201 82.4988 57.8848C82.7892 57.9422 83.0878 58.0326 83.2675 58.2584C83.3553 58.3634 83.8241 58.2096 83.7215 58.0802Z" fill="white"/>
<g clip-path="url(#clip0_71_20781)">
<path d="M52.271 54.2166C52.5153 53.6551 52.363 53.0464 51.9309 52.8568C51.4987 52.6673 50.9503 52.9688 50.706 53.5303C50.4617 54.0917 50.614 54.7005 51.0462 54.89C51.4783 55.0795 52.0267 54.778 52.271 54.2166Z" fill="white"/>
<path d="M50.731 51C50.911 51.3372 50.6619 51.7311 50.4788 52.0673C50.1722 52.6283 50.0351 53.268 49.965 53.9046C49.874 54.7324 49.9702 55.7241 50.6808 56.1548C51.1852 56.4615 51.8538 56.3628 52.3624 56.0644C52.871 55.765 53.255 55.2965 53.6265 54.8375C54.1351 54.2103 54.6436 53.5842 55.1511 52.9571C55.35 53.5422 54.9031 54.1315 54.4877 54.5885C53.5218 55.6484 52.557 56.7084 51.5912 57.7683C51.4499 57.9238 51.3034 58.0887 51.2584 58.2936C51.2134 58.4984 51.316 58.7516 51.5211 58.7947C51.633 58.8178 51.7471 58.7758 51.8559 58.7379C53.4266 58.1864 54.8121 58.8703 56.1536 59.8588C56.2928 59.9607 56.4822 60.1036 56.545 60.2654C56.6078 60.4271 57.1279 60.9671 56.9719 61.0406C56.8642 61.0921 56.4602 60.9629 56.3441 60.9345C55.5373 60.7381 55.0653 60.7339 54.247 60.5921C53.4434 60.4534 51.7701 60.799 51.1956 61.3999C49.9985 62.6521 50.8953 64.1984 50.1827 65.7794C50.1502 65.8519 50.1126 65.9265 50.0445 65.9674C49.8373 66.0935 49.6218 65.8151 49.5454 65.584C49.019 63.9936 49.0117 62.2834 49.0086 60.6068C49.0054 59.1529 49.0033 57.699 49.0002 56.2441C48.9991 55.5024 48.9981 54.7576 49.1184 54.0265C49.2231 53.3888 49.4198 52.7701 49.6542 52.1681C49.8447 51.6786 50.1303 51.1397 50.6421 51.0305" fill="white"/>
</g>
<g clip-path="url(#clip1_71_20781)">
<path d="M108.132 60.6491C108.133 60.3767 107.805 60.1542 107.398 60.1521C106.992 60.15 106.661 60.3691 106.659 60.6415C106.658 60.9139 106.986 61.1365 107.393 61.1386C107.799 61.1407 108.13 60.9216 108.132 60.6491Z" fill="white"/>
<path d="M108.043 60.6901L108.009 60.6915C107.96 60.6935 107.918 60.6574 107.916 60.6111L107.826 58.5889C107.824 58.5426 107.862 58.5033 107.911 58.5015L107.946 58.5C107.951 58.4998 107.986 58.4994 108.013 58.5254C108.035 58.5474 108.038 58.5738 108.038 58.5804L108.128 60.6026C108.13 60.649 108.092 60.6883 108.043 60.6901Z" fill="white"/>
<path d="M108.067 59.5244C108.606 59.4942 108.822 59.9526 108.811 60.0775C108.81 60.091 108.825 60.1619 108.879 60.1901C108.904 60.2028 108.944 60.2103 108.97 60.1948C109.031 60.1593 108.989 60.0229 108.962 59.82C108.924 59.5335 108.973 59.5592 108.934 59.4257C108.92 59.3765 108.833 59.096 108.573 58.955C108.421 58.8719 108.344 58.9112 108.217 58.8153C108.102 58.7291 108.048 58.6102 108.02 58.5195L108.067 59.5244Z" fill="white"/>
<path d="M105.764 57.9934C106.166 57.9346 106.456 57.6687 106.412 57.3995C106.368 57.1303 106.007 56.9597 105.605 57.0185C105.203 57.0773 104.913 57.3432 104.957 57.6124C105.001 57.8816 105.362 58.0522 105.764 57.9934Z" fill="white"/>
<path d="M106.331 57.4538L106.298 57.4603C106.25 57.4695 106.203 57.4401 106.193 57.3948L105.765 55.4117C105.756 55.3661 105.787 55.3218 105.835 55.3125L105.868 55.3061C105.874 55.3051 105.908 55.2994 105.939 55.321C105.965 55.3393 105.972 55.3649 105.973 55.3716L106.401 57.3547C106.41 57.4002 106.38 57.4446 106.331 57.4538Z" fill="white"/>
<path d="M107.903 57.5676C108.305 57.5088 108.595 57.2429 108.551 56.9737C108.507 56.7045 108.145 56.5339 107.743 56.5927C107.341 56.6515 107.051 56.9175 107.095 57.1867C107.139 57.4559 107.501 57.6264 107.903 57.5676Z" fill="white"/>
<path d="M108.47 57.028L108.436 57.0345C108.388 57.0438 108.341 57.0143 108.332 56.969L107.904 54.9859C107.894 54.9404 107.925 54.896 107.973 54.8868L108.007 54.8803C108.013 54.8793 108.047 54.8737 108.078 54.8952C108.104 54.9136 108.11 54.9392 108.112 54.9458L108.539 56.9289C108.549 56.9742 108.518 57.0188 108.47 57.028Z" fill="white"/>
<path d="M107.935 54.8033C107.698 54.7757 107.451 54.979 106.835 55.084C106.309 55.1737 106.056 55.0991 105.875 55.1924C105.694 55.2851 105.728 55.4695 105.942 55.5432C106.404 55.7018 107.836 55.3947 108.077 55.0776C108.164 54.9637 108.115 54.8243 107.935 54.8033Z" fill="white"/>
<path d="M106.265 62.4714C106.266 62.199 105.938 61.9764 105.531 61.9743C105.124 61.9722 104.793 62.1914 104.792 62.4638C104.79 62.7362 105.119 62.9587 105.525 62.9608C105.932 62.963 106.263 62.7438 106.265 62.4714Z" fill="white"/>
<path d="M106.176 62.5124L106.142 62.5138C106.093 62.5158 106.051 62.4797 106.049 62.4334L105.959 60.4112C105.957 60.3648 105.995 60.3255 106.044 60.3237L106.078 60.3223C106.084 60.3221 106.119 60.3217 106.146 60.3477C106.168 60.3697 106.171 60.3961 106.171 60.4027L106.261 62.4249C106.263 62.471 106.225 62.5103 106.176 62.5124Z" fill="white"/>
<path d="M97.4052 65.5162C97.4859 65.4402 97.8302 65.8505 98.237 65.7909C98.502 65.752 98.7211 65.5241 98.801 65.2831C98.9086 64.9583 98.7626 64.6111 98.4952 64.4261C98.1665 64.1984 97.7836 64.306 97.7175 64.326C97.357 64.435 97.1925 64.7278 97.1015 64.8898C97.034 65.0099 96.7553 65.5485 97.0206 66.0979C97.2089 66.4882 97.565 66.6627 97.7987 66.7772C98.2001 66.9738 98.5621 66.9914 98.7292 66.9978C98.9001 67.0043 99.4157 67.018 99.9358 66.7332C100.081 66.6537 100.285 66.5396 100.449 66.3115C100.518 66.215 100.602 66.0671 100.667 65.7699C100.746 65.408 100.736 65.0937 100.703 64.7602C100.581 63.5611 100.298 63.1309 100.347 62.5633C100.353 62.501 100.351 62.5949 100.233 62.4295C100.135 62.2927 99.9385 62.1672 99.8422 62.2157C99.7052 62.2848 99.8544 62.6651 100.058 63.7372C100.248 64.733 100.118 64.1259 100.269 65.1463C100.288 65.2766 100.273 65.5158 100.172 65.7723C100.067 66.0399 99.8687 66.1981 99.7952 66.2517C99.6292 66.373 99.4813 66.4121 99.2331 66.4777C98.9557 66.5511 98.7322 66.6103 98.4447 66.561C98.3559 66.5457 98.0889 66.5253 97.8822 66.3786C97.7028 66.2515 97.6436 66.2325 97.5226 66.0302C97.419 65.8569 97.3587 65.5599 97.4052 65.5162Z" fill="white"/>
<path d="M98.341 60.3467C98.4454 60.1708 97.6387 59.8389 97.5984 59.17C97.5707 58.7092 97.9227 58.3578 97.9881 58.2925C98.2523 58.0287 98.5551 57.9431 98.7411 57.8931C99.4617 57.6999 100.088 57.9511 100.263 58.0245C100.512 58.1285 101.109 58.4259 101.454 59.0928C101.512 59.2036 101.929 60.0471 101.494 60.9715C101.134 61.737 100.431 62.0427 100.242 62.1175C100.042 62.1966 99.8527 62.2333 99.7939 62.2444C99.5476 62.2907 99.2227 62.3151 98.7552 62.2353C98.047 62.1144 97.37 62.003 96.8593 61.4676C96.3087 60.8908 96.2661 60.1883 96.2497 59.9173C96.1894 58.9252 96.6925 58.153 96.8855 57.8655C97.5554 56.8669 98.3082 56.717 98.3678 55.9207C98.39 55.6241 98.318 55.2134 98.1818 55.1923C98.0604 55.1733 97.9168 55.4685 97.8654 55.5689C97.3445 56.5884 96.4792 56.8056 95.7328 57.963C95.5639 58.2248 94.6707 59.6096 95.1298 61.0014C95.2607 61.3979 95.4609 61.673 95.5406 61.7759C96.2516 62.6951 97.3884 62.8855 97.8582 62.9641C98.9163 63.1414 99.7573 62.9001 100.036 62.81C100.284 62.73 101.332 62.3677 102.105 61.3864C102.293 61.1479 102.539 60.8303 102.674 60.3451C102.736 60.1241 102.891 59.4503 102.598 58.7263C102.056 57.387 100.457 57.0589 100.258 57.0212C99.9816 56.9689 98.977 56.7786 98.041 57.3457C97.3419 57.769 96.9948 58.4247 96.8908 58.8688C96.8561 59.0175 96.8009 59.2665 96.897 59.5603C96.9273 59.6528 97.0093 59.8629 97.2092 60.0475C97.6012 60.4098 98.2536 60.4938 98.341 60.3467Z" fill="white"/>
<path d="M99.0476 50.6923C98.9843 50.6046 98.3106 49.9052 97.9692 50.0108C97.8314 50.0535 97.3426 51.4852 97.3207 51.5484C97.0469 52.3387 97.881 54.8719 97.93 55.5622L98.6673 55.7357C99.2281 55.0127 99.4522 54.3403 99.5513 53.9353C99.6043 53.7191 99.9972 52.0072 99.0476 50.6923ZM98.3884 55.1078C98.3349 55.1058 98.2556 55.0293 98.0875 54.0935C97.8097 52.5482 97.6285 51.4775 98.1354 51.1714C98.1838 51.1422 98.2548 51.0995 98.34 51.112C98.7717 51.1751 98.9568 52.5597 98.8286 53.6915C98.7589 54.3055 98.5665 55.1145 98.3884 55.1078Z" fill="white"/>
<path d="M97.9316 55.5625L99.8776 62.8576L100.344 62.7283L98.6689 55.7362L97.9316 55.5625Z" fill="white"/>
</g>
<path d="M128 50H115V67H128V50Z" stroke="white" stroke-width="0.5" stroke-miterlimit="10"/>
<path d="M126.662 58.7004C125.997 57.6707 125.046 57.6707 124.951 56.8125C124.856 56.126 125.522 55.9544 125.712 54.9247C125.712 54.7531 125.902 53.7233 125.142 52.8652C125.047 52.6936 124.476 52.1787 123.526 52.0071C123.431 52.0071 122.576 51.9212 121.91 52.3503C121.15 52.8652 120.96 53.8091 120.865 54.5814C120.675 55.7828 120.865 56.0402 120.485 56.6409C120.295 57.1558 120.105 56.9842 119.535 57.6707C119.06 58.3572 119.155 58.5288 118.584 59.1295C118.109 59.7302 118.014 59.6444 117.824 59.9876C117.444 60.6741 117.634 61.0173 117.254 61.5322C116.969 61.7897 116.779 61.7038 116.494 62.0471C116.209 62.3045 115.924 62.8194 116.019 63.1627C116.209 63.935 118.204 63.8492 121.625 64.364C124.856 64.8789 125.807 65.308 126.472 64.7073C126.947 64.364 126.947 63.4201 126.947 61.618C127.042 60.0734 127.042 59.3011 126.662 58.7004ZM126.019 61.7073C125.638 62.0505 121.91 63.6775 120.485 63.5059C120.01 63.4201 118.735 62.7336 118.45 62.3903C118.45 62.3903 118.344 61.7038 118.344 61.618C118.344 61.4464 120.2 60.8457 120.39 60.8457C121.34 60.5025 125.201 60.7599 125.201 61.618C125.201 61.7897 126.019 61.7073 126.019 61.7073ZM125.519 59.7073C125.328 60.2221 123.241 60.0734 122.196 59.9876C121.34 59.816 120.01 59.4727 120.01 58.872C120.01 58.5288 120.485 58.0997 121.15 57.6707C121.435 57.499 121.72 57.3274 121.91 56.9842C122.101 56.7267 122.291 56.2977 122.196 56.2119C122.101 56.126 122.006 56.2119 121.815 56.126C121.625 55.9544 121.625 55.7828 121.625 55.6112C121.435 54.4098 121.34 53.8091 121.815 53.3801C121.91 53.2942 122.386 52.7794 123.051 52.7794C123.716 52.7794 124.286 53.2942 124.476 53.7233C124.571 53.9807 124.476 54.324 124.286 54.9247C124.096 55.9544 123.906 55.9544 123.906 56.3835C123.811 57.1558 124.096 57.8423 124.191 58.0997C124.476 59.0437 125.614 59.364 125.519 59.7073Z" fill="white"/>
<g clip-path="url(#clip2_71_20781)">
<path d="M122.94 54.0039C122.948 54.0785 122.966 54.3354 122.73 54.5868C122.477 54.8566 122.106 54.9358 122.012 54.9542" stroke="white" stroke-miterlimit="10"/>
</g>
<g clip-path="url(#clip3_71_20781)">
<path d="M178.102 51.6524C177.463 51.3609 176.185 51.4335 176.115 51.6817C176.074 51.8281 176.474 51.9656 176.757 52.5104C176.9 52.7853 177.049 53.2321 176.895 53.3543C176.761 53.46 176.492 53.2461 176.161 53.1328C175.418 52.8795 174.483 53.1736 173.898 53.6509C173.005 54.379 172.864 55.587 173.103 56.3457C173.301 56.9719 173.608 57.3373 173.608 57.3373C173.919 57.7077 174.325 57.9584 174.25 58.1812C174.219 58.2728 174.135 58.2779 174.036 58.4625C174 58.5287 173.976 58.5923 173.929 58.7884C173.896 58.922 173.85 59.1091 173.827 59.2759C173.763 59.7227 173.813 60.321 173.837 60.4915C173.947 61.2476 175.357 66.0923 176.772 65.9994C179.044 65.8492 181.032 52.9877 178.102 51.6524ZM176.925 55.8123C176.795 56.1496 176.57 56.4959 176.291 56.7823C175.826 57.2596 175.209 57.5727 174.632 57.4111C173.683 57.1463 173.189 55.6977 173.669 54.7023C174.053 53.9055 174.928 53.6764 175.03 53.6509C176.051 53.3989 176.838 53.9971 176.925 54.0659C177.021 54.3421 177.221 55.0473 176.925 55.8123Z" fill="white"/>
<path d="M182.228 65.9994C183.643 66.0923 185.053 61.2476 185.163 60.4915C185.187 60.321 185.238 59.7227 185.173 59.2759C185.149 59.1091 185.103 58.922 185.071 58.7884C185.024 58.5936 185 58.5287 184.964 58.4625C184.865 58.2779 184.781 58.2728 184.75 58.1812C184.675 57.9584 185.081 57.7077 185.392 57.3373C185.392 57.3373 185.699 56.9719 185.897 56.3457C186.136 55.587 185.995 54.3803 185.102 53.6509C184.517 53.1736 183.582 52.8795 182.839 53.1328C182.508 53.2461 182.239 53.46 182.106 53.3543C181.952 53.2321 182.101 52.7853 182.243 52.5104C182.526 51.9656 182.926 51.8281 182.885 51.6817C182.815 51.4335 181.538 51.3609 180.898 51.6524C177.968 52.9877 179.957 65.8492 182.228 65.9994ZM182.075 54.0659C182.162 53.9984 182.949 53.4001 183.971 53.6509C184.073 53.6764 184.948 53.9055 185.331 54.7023C185.811 55.6977 185.317 57.1463 184.368 57.4124C183.791 57.574 183.176 57.2609 182.709 56.7835C182.431 56.4971 182.205 56.1522 182.075 55.8136C181.78 55.0473 181.98 54.3421 182.075 54.0659Z" fill="white"/>
<path d="M184.474 51H174.385V51.7294H184.474V51Z" fill="white"/>
<path d="M183.377 64.8398H175.645V65.9969H183.377V64.8398Z" fill="white"/>
<path d="M181.622 51.1504H177.582V65.6641H181.622V51.1504Z" fill="white"/>
</g>
<path d="M137.782 57.1105C138.11 56.2633 137.52 55.8378 137.69 54.9561C137.828 54.2405 138.36 53.7767 138.695 53.484C140.057 52.2957 141.997 52.4209 142.314 52.4414C145.2 52.6279 147.356 55.2679 148.212 57.3481C148.477 57.9947 150.035 61.7783 147.475 64.463C145.278 66.7656 141.813 66.4155 141.376 66.3644C137.915 65.9619 135.16 63.2593 134.942 60.9043C134.883 60.2769 134.921 58.7576 135.746 58.3896C136.109 58.2273 136.449 58.3678 136.953 58.0829C137.51 57.7685 137.733 57.237 137.782 57.1105Z" stroke="white" stroke-width="0.5" stroke-miterlimit="10"/>
<path d="M141.075 56.7665C142.047 56.6515 142.817 55.605 142.482 54.8651C142.199 54.2377 141.175 53.9579 140.405 54.2518C139.783 54.4895 139.193 55.1514 139.399 55.8465C139.599 56.5199 140.431 56.8432 141.075 56.7665Z" stroke="white" stroke-width="0.5" stroke-miterlimit="10"/>
<path d="M144.994 56.1844C144.88 56.1934 144.101 56.256 143.889 56.8284C143.741 57.2297 143.946 57.6769 144.291 57.9095C144.767 58.2302 145.426 58.0871 145.799 57.7715C146.124 57.4967 146.375 56.9728 146.125 56.5754C145.836 56.1167 145.096 56.1767 144.994 56.1844Z" stroke="white" stroke-width="0.5" stroke-miterlimit="10"/>
<path d="M146.831 61.0136C146.518 61.3944 145.778 61.5822 145.272 61.1976C144.775 60.8206 144.819 60.1306 145.197 59.7485C145.479 59.4649 145.977 59.3217 146.403 59.4955C146.91 59.7025 146.995 60.2277 147.006 60.3005C147.018 60.3785 147.068 60.7261 146.831 61.0136Z" stroke="white" stroke-width="0.5" stroke-miterlimit="10"/>
<path d="M145.825 63.2215C145.931 63.7492 145.467 64.3179 144.845 64.3945C144.334 64.4584 143.766 64.1837 143.614 63.6815C143.464 63.1896 143.78 62.6951 144.217 62.5085C144.842 62.2414 145.701 62.6069 145.825 63.2215Z" stroke="white" stroke-width="0.5" stroke-miterlimit="10"/>
<path d="M140.775 62.0479C140.192 62.0748 139.661 62.6038 139.593 63.106C139.436 64.2803 141.793 65.4201 142.634 65.176C142.715 65.1517 142.991 65.0725 143.011 64.923C143.034 64.7607 142.741 64.601 142.71 64.578C142.498 64.4208 142.593 64.5243 142.475 64.4029C142.336 64.2573 142.412 64.2445 142.35 64.0375C142.295 63.856 142.255 63.7398 142.309 63.5813C142.396 63.327 142.196 63.0612 142.056 62.876C141.851 62.6038 141.413 62.0186 140.775 62.0479Z" fill="white"/>
<path d="M133.029 52.371C132.848 52.2266 132.564 52.3493 132.572 52.5691C132.572 52.5716 132.572 52.5742 132.572 52.5768C132.667 54.9675 133.97 56.7399 134.834 57.8541C136.437 59.9152 138.657 62.5002 139.442 62.2932C141.633 61.7144 139.544 60.0277 137.723 57.3749C136.171 55.1145 134.414 53.4763 133.029 52.371Z" fill="white" stroke="white" stroke-width="0.5" stroke-miterlimit="10"/>
<path d="M157.054 57.6767C156.871 57.6425 156.593 57.6129 156.278 57.6767C155.844 57.7641 155.785 57.9377 155.456 57.9483C155.099 57.959 155.007 57.7594 154.517 57.6767C154.229 57.6283 153.98 57.6507 153.816 57.6767C153.816 56.8359 153.816 55.9951 153.816 55.1543H157.054V57.6767Z" stroke="white" stroke-width="0.5" stroke-miterlimit="10"/>
<path d="M156.169 53H154.848V55.154H156.169V53Z" stroke="white" stroke-width="0.5" stroke-miterlimit="10"/>
<path d="M153.375 64.8654L152.98 64.7891L152.821 65.3973L153.215 65.4737L153.375 64.8654Z" stroke="white" stroke-width="0.5" stroke-miterlimit="10"/>
<path d="M153.017 65.4355L152.9 65.8784L153.017 65.4355Z" stroke="white" stroke-width="0.5" stroke-miterlimit="10"/>
<path d="M155.456 57.9469L154.559 57.7734L152.728 64.7406L153.625 64.9141L155.456 57.9469Z" stroke="white" stroke-width="0.5" stroke-miterlimit="10"/>
<path d="M157.601 65.4748L157.996 65.3984L157.836 64.7902L157.441 64.8665L157.601 65.4748Z" stroke="white" stroke-width="0.5" stroke-miterlimit="10"/>
<path d="M157.801 65.4355L157.916 65.8784L157.801 65.4355Z" stroke="white" stroke-width="0.5" stroke-miterlimit="10"/>
<path d="M157.193 64.9137L158.09 64.7402L156.259 57.7731L155.362 57.9466L157.193 64.9137Z" stroke="white" stroke-width="0.5" stroke-miterlimit="10"/>
<path d="M158.233 60.6314C157.653 60.8522 156.529 61.197 155.089 61.1203C154.086 61.0659 153.293 60.8274 152.781 60.6314C152.781 60.4046 152.781 60.1779 152.781 59.9512C153.431 60.1165 154.359 60.2889 155.485 60.2913C156.632 60.2936 157.576 60.1189 158.233 59.9512C158.233 60.1779 158.233 60.4046 158.233 60.6314Z" fill="white" stroke="white" stroke-width="0.5" stroke-miterlimit="10"/>
<path d="M168.992 59.8128L162.187 66C162.167 65.6521 162.051 64.525 161.077 63.5322C159.892 62.3218 158.315 62.2091 158 62.1924C160.268 60.1304 162.537 58.0673 164.805 56.0052C165.022 55.9925 166.767 55.917 168.01 57.1813C169.08 58.2702 169.01 59.5707 168.992 59.8128Z" stroke="white" stroke-width="0.5" stroke-miterlimit="10"/>
<path d="M163.389 58.5632L164.451 59.2813L165.429 58.1816L165.407 59.4186L166.924 59.0717L165.832 60.1042L167 60.7133L165.478 60.9345L165.612 62.1432L164.549 61.4251L163.571 62.5248L163.593 61.2878L162.076 61.6337L163.168 60.6022L162 59.9931L163.524 59.7709L163.389 58.5632Z" stroke="white" stroke-width="0.5" stroke-miterlimit="10"/>
<defs>
<clipPath id="clip0_71_20781">
<rect width="8" height="15" fill="white" transform="translate(49 51)"/>
</clipPath>
<clipPath id="clip1_71_20781">
<rect width="14" height="17" fill="white" transform="translate(95 50)"/>
</clipPath>
<clipPath id="clip2_71_20781">
<rect width="1" height="1" fill="white" transform="translate(122 54)"/>
</clipPath>
<clipPath id="clip3_71_20781">
<rect width="13" height="15" fill="white" transform="translate(173 51)"/>
</clipPath>
</defs>
</svg>
