<svg width="232" height="219" viewBox="0 0 232 219" fill="none" xmlns="http://www.w3.org/2000/svg">
<path d="M116 212C176.199 212 225 166.109 225 109.5C225 52.8908 176.199 7 116 7C55.801 7 7 52.8908 7 109.5C7 166.109 55.801 212 116 212Z" fill="#D7D6D6" stroke="white" stroke-width="13" stroke-miterlimit="10"/>
<path d="M116.566 134.844C85.5346 134.844 60.3838 158.243 60.3838 187.11C60.3838 187.603 60.4097 188.087 60.4269 188.571C76.5072 199.692 95.8122 206.172 116.566 206.172C137.328 206.172 156.624 199.692 172.705 188.571C172.722 188.087 172.748 187.594 172.748 187.11C172.748 158.243 147.597 134.844 116.566 134.844Z" fill="#192352"/>
<path d="M116.499 155.791C128.499 155.791 138.227 148.424 138.227 139.337C138.227 130.25 128.499 122.883 116.499 122.883C104.499 122.883 94.7715 130.25 94.7715 139.337C94.7715 148.424 104.499 155.791 116.499 155.791Z" fill="white"/>
<path d="M116.501 149.338C123.529 149.338 129.227 143.416 129.227 136.111C129.227 128.805 123.529 122.883 116.501 122.883C109.472 122.883 103.774 128.805 103.774 136.111C103.774 143.416 109.472 149.338 116.501 149.338Z" fill="#F8BF97"/>
<path d="M116.604 116.474C137.976 116.474 155.301 98.0495 155.301 75.3212C155.301 52.5929 137.976 34.168 116.604 34.168C95.2331 34.168 77.9082 52.5929 77.9082 75.3212C77.9082 98.0495 95.2331 116.474 116.604 116.474Z" fill="black" stroke="black" stroke-miterlimit="10"/>
<path d="M87.2201 100.788C92.363 100.788 96.5321 97.466 96.5321 93.3678C96.5321 89.2695 92.363 85.9473 87.2201 85.9473C82.0773 85.9473 77.9082 89.2695 77.9082 93.3678C77.9082 97.466 82.0773 100.788 87.2201 100.788Z" fill="#F7B894"/>
<path d="M145.833 100.788C150.976 100.788 155.145 97.466 155.145 93.3678C155.145 89.2695 150.976 85.9473 145.833 85.9473C140.691 85.9473 136.521 89.2695 136.521 93.3678C136.521 97.466 140.691 100.788 145.833 100.788Z" fill="#F7B894"/>
<path d="M116.501 128.409C134.501 128.409 149.093 120.833 149.093 111.489C149.093 102.144 134.501 94.5684 116.501 94.5684C98.501 94.5684 83.9092 102.144 83.9092 111.489C83.9092 120.833 98.501 128.409 116.501 128.409Z" fill="#FCD3A0"/>
<path d="M128.701 53.7227H106.473C94.0143 53.7227 83.9092 64.2261 83.9092 77.1761V107.907H149.093V74.9177C149.093 63.2134 139.962 53.7227 128.701 53.7227Z" fill="#FCD3A0"/>
<path d="M105.325 108.695C105.739 109.278 109.654 114.503 116.5 114.503C117.198 114.503 123.57 114.386 127.674 108.695" stroke="#F4A263" stroke-width="4" stroke-miterlimit="10" stroke-linecap="round"/>
<path d="M114.19 98.6953H118.329" stroke="#F4A263" stroke-width="4" stroke-miterlimit="10" stroke-linecap="round"/>
<path d="M100.877 87.4912C102.477 87.4912 103.774 86.143 103.774 84.48C103.774 82.8169 102.477 81.4688 100.877 81.4688C99.2765 81.4688 97.9795 82.8169 97.9795 84.48C97.9795 86.143 99.2765 87.4912 100.877 87.4912Z" fill="black" stroke="black" stroke-miterlimit="10"/>
<path d="M132.124 87.4912C133.724 87.4912 135.021 86.143 135.021 84.48C135.021 82.8169 133.724 81.4688 132.124 81.4688C130.524 81.4688 129.227 82.8169 129.227 84.48C129.227 86.143 130.524 87.4912 132.124 87.4912Z" fill="black" stroke="black" stroke-miterlimit="10"/>
<path d="M132.124 56.9048C129.279 61.7712 130.072 63.1244 127.158 67.0766C126.667 67.7398 118.631 78.2791 106.051 78.3687C93.5748 78.4583 80.2449 68.2327 79.9777 56.9048C79.7535 47.3245 88.9447 40.3432 91.9797 38.0399C114.665 20.8061 150.731 32.5373 151.162 39.3305C151.412 43.2468 139.729 43.9011 132.124 56.9048Z" fill="black" stroke="black" stroke-miterlimit="10"/>
</svg>
