<svg width="57" height="56" viewBox="0 0 57 56" fill="none" xmlns="http://www.w3.org/2000/svg">
<rect x="0.90625" y="0.5" width="55.4058" height="55" rx="27.5" stroke="#32BCA3"/>
<path d="M26.1094 34.8759H22.3594C22.1936 34.8759 22.0346 34.8101 21.9174 34.6928C21.8002 34.5756 21.7344 34.4167 21.7344 34.2509V30.7587C21.7341 30.6776 21.7498 30.5971 21.7807 30.5221C21.8115 30.447 21.8568 30.3787 21.9141 30.3212L31.2891 20.9462C31.3472 20.8872 31.4165 20.8403 31.493 20.8083C31.5694 20.7763 31.6515 20.7598 31.7344 20.7598C31.8173 20.7598 31.8993 20.7763 31.9758 20.8083C32.0522 20.8403 32.1215 20.8872 32.1797 20.9462L35.6641 24.4306C35.7231 24.4888 35.77 24.5581 35.802 24.6345C35.834 24.711 35.8505 24.793 35.8505 24.8759C35.8505 24.9588 35.834 25.0408 35.802 25.1173C35.77 25.1937 35.7231 25.2631 35.6641 25.3212L26.1094 34.8759Z" stroke="#32BCA3" stroke-width="1.5" stroke-linecap="round" stroke-linejoin="round"/>
<path d="M29.2344 23L33.6094 27.375" stroke="#32BCA3" stroke-width="1.5" stroke-linecap="round" stroke-linejoin="round"/>
<path d="M35.4844 34.875H26.1094" stroke="#32BCA3" stroke-width="1.5" stroke-linecap="round" stroke-linejoin="round"/>
</svg>
